<!-- Generator: Adobe Illustrator 22.1.0, SVG Export Plug-In  -->
<svg version="1.1"
	 xmlns="http://www.w3.org/2000/svg" xmlns:xlink="http://www.w3.org/1999/xlink" xmlns:a="http://ns.adobe.com/AdobeSVGViewerExtensions/3.0/"
	 x="0px" y="0px" width="137.287px" height="188.568px" viewBox="0 0 137.287 188.568"
	 style="enable-background:new 0 0 137.287 188.568;" xml:space="preserve">
<style type="text/css">
	.st0{fill:#754C29;stroke:#3C2415;stroke-miterlimit:10;}
	.st1{fill:#1B75BC;stroke:#2BB673;stroke-width:3;stroke-miterlimit:10;}
	.st2{fill:none;stroke:#2BB673;stroke-width:3;stroke-miterlimit:10;}
	.st3{fill:none;stroke:#000000;stroke-miterlimit:10;}
	.st4{fill:none;stroke:#3C2415;stroke-miterlimit:10;}
	.st5{fill:none;stroke:#000000;stroke-width:0.5;stroke-miterlimit:10;}
</style>
<defs>
</defs>
<polyline class="st0" points="32.087,167.31 28.602,184.654 46.713,187.985 49.818,170.822 "/>
<path class="st1" d="M133.645,84.728c-7.346,28.542-36.467,35.987-58.831,51.053c-3.739,2.519-14.103,11.995-20.617,17.157
	c-3.212,2.545-5.188,0.676-7.658,0.04c-2.379-0.612-5.234,0.206-6.783-3.357c-3.338-7.679-7.855-20.391-10.31-24.363
	C13.579,99.578-4.13,79.669,3.209,51.155C6.76,37.36,14.336,25.668,24.357,17.012c2.13-1.84,8.061-2.304,8.061-2.304
	s3.413-5.763,5.924-7.018c2.829-1.414,10.773,0.259,10.773,0.259s6.509-5.787,9.819-6.368c4.437-0.778,10.869,4.292,10.869,4.292
	s10.467-4.423,15.411-3.15c2.616,0.673,6.335,6.776,6.335,6.776s6.431-2.149,8.859-0.841c3.054,1.645,7.511,8.091,7.511,8.091
	s6.627,1.976,9.06,4.511c1.748,1.821,3.604,8.399,3.604,8.399s4.909,2.39,6.437,5.086c1.457,2.571,2.746,5.238,3.857,7.983
	C136.093,55.617,137.377,70.228,133.645,84.728z"/>
<polyline class="st2" points="69.803,5.873 74.916,29.158 49.115,7.949 "/>
<polyline class="st2" points="107.919,16.749 74.916,29.158 91.549,9.499 "/>
<polyline class="st2" points="32.418,14.708 74.916,29.158 120.584,29.659 "/>
<path class="st2" d="M74.916,29.158l-25.334,5.371c-11.09,2.351-18.888,12.329-18.491,23.658
	c0.963,27.435,7.743,68.298,15.449,94.79c-1.521-5.23,2.684-31.969,3.677-37.372c3.385-18.42,4.487-35.825,3.997-54.46
	c-0.161-6.129,2.095-12.075,6.281-16.554L74.916,29.158z"/>
<path class="st2" d="M84.598,63.349C69.709,87.67,58.397,122.911,49.12,149.781c9.493-10.426,14.143-24.2,23.804-34.521
	c15.554-16.615,23.334-32.514,30.937-53.665c1.872-5.208,0.102-11.028-4.353-14.311L74.916,29.158l10.367,22.395
	C87.041,55.352,86.784,59.778,84.598,63.349z"/>
<path class="st2" d="M46.54,152.977c10.402-8.918,20.804-17.837,31.206-26.755c7.506-6.436,15.012-12.871,22.518-19.307
	c6.598-5.657,14.579-10.743,18.465-18.829c2.939-6.116,3.175-13.745,4.282-20.384c1.516-9.093-3.258-18.073-11.644-21.901
	L74.916,29.158"/>
<path class="st2" d="M73.97,29.895l-45.363,0.488c-4.57,0.049-8.967,1.756-12.373,4.804L5.316,44.958"/>
<polygon class="st3" points="36.929,145.341 37.95,147.464 56.763,151.761 58.528,150.685 "/>
<polyline class="st3" points="37.654,146.762 49.513,170.65 32.709,167.169 57.491,151.35 "/>
<line class="st4" x1="31.394" y1="170.76" x2="49.166" y2="174.427"/>
<line class="st4" x1="30.854" y1="173.446" x2="48.583" y2="177.648"/>
<line class="st4" x1="30.3" y1="176.204" x2="48.18" y2="179.874"/>
<line class="st4" x1="29.931" y1="178.039" x2="47.747" y2="182.268"/>
<line class="st4" x1="29.299" y1="181.184" x2="47.341" y2="184.515"/>
<line class="st4" x1="29.415" y1="182.85" x2="47.012" y2="186.331"/>
<line class="st5" x1="49.818" y1="169.822" x2="43.526" y2="148.737"/>
<line class="st5" x1="49.309" y1="150.403" x2="32.087" y2="167.31"/>
</svg>