<!-- Generator: Adobe Illustrator 22.1.0, SVG Export Plug-In  -->
<svg version="1.1"
	 xmlns="http://www.w3.org/2000/svg" xmlns:xlink="http://www.w3.org/1999/xlink" xmlns:a="http://ns.adobe.com/AdobeSVGViewerExtensions/3.0/"
	 x="0px" y="0px" width="54.759px" height="153.939px" viewBox="0 0 54.759 153.939"
	 style="enable-background:new 0 0 54.759 153.939;" xml:space="preserve">
<style type="text/css">
	.st0{fill:#262262;stroke:#262262;stroke-width:3;stroke-miterlimit:10;}
	.st1{fill:none;stroke:#FFFFFF;stroke-width:1.5;stroke-miterlimit:10;}
	.st2{fill:none;stroke:#FFFFFF;stroke-width:2;stroke-miterlimit:10;}
	.st3{fill:none;stroke:#FFFFFF;stroke-width:3;stroke-linecap:round;stroke-miterlimit:10;}
	.st4{fill:none;stroke:#FFFFFF;stroke-width:2;stroke-linecap:round;stroke-miterlimit:10;}
	.st5{fill:none;stroke:#FFFFFF;stroke-linecap:round;stroke-miterlimit:10;}
</style>
<defs>
</defs>
<path class="st0" d="M2.406,24.499c0,0,19.655-0.645,19.683-0.646c0,0,0,0,0,0.001c4.62,14.48,8.082,28.836,8.005,44.142
	c-0.055,10.889-2.374,21.368-4.025,32.074c-1.619,10.498-2.244,21.749,2.08,31.721c3.631,8.374,11.343,14.4,17.975,20.529
	c0.326,0.302,0.837-0.014,0.725-0.444c-0.381-1.459-0.611-3.273-0.851-4.121c-0.62-2.191-1.241-4.382-1.828-6.582
	c-1.168-4.377-2.232-8.787-2.971-13.259c-1.36-8.231-1.305-16.421,0.086-24.647c2.794-16.523,9.787-32.11,11.407-48.866
	c1.684-17.418,0.943-47.948-21.1-52.476c-6.288-1.292-13.199,0.403-18.189,4.447C7.991,10.758,5.302,18.375,2.406,24.499z"/>
<ellipse transform="matrix(0.2139 -0.9769 0.9769 0.2139 -78.8326 103.8537)" class="st1" cx="25.108" cy="100.906" rx="2.311" ry="0.974"/>
<ellipse transform="matrix(0.1597 -0.9872 0.9872 0.1597 -47.4214 96.783)" class="st2" cx="33.138" cy="76.246" rx="2.741" ry="1.431"/>
<ellipse transform="matrix(0.0398 -0.9992 0.9992 0.0398 -34.0098 98.9989)" class="st2" cx="34.505" cy="67.195" rx="2.222" ry="1.289"/>
<ellipse class="st2" cx="34.247" cy="58.224" rx="1.544" ry="2.222"/>
<ellipse transform="matrix(0.9946 -0.1035 0.1035 0.9946 -5.0161 3.7044)" class="st2" cx="33.189" cy="50.19" rx="1.502" ry="2.222"/>
<ellipse transform="matrix(0.9986 -0.0533 0.0533 0.9986 -2.2143 1.7481)" class="st2" cx="31.688" cy="42.416" rx="1.289" ry="2.222"/>
<ellipse transform="matrix(0.9946 -0.1035 0.1035 0.9946 -3.3794 3.3776)" class="st2" cx="30.859" cy="34.254" rx="1.971" ry="2.476"/>
<ellipse transform="matrix(0.9764 -0.2161 0.2161 0.9764 -4.8092 6.8142)" class="st2" cx="28.756" cy="25.399" rx="2.105" ry="2.831"/>
<path class="st3" d="M22.324,27.878c0.819-0.239,1.85,0.829,2.304,2.385c0.454,1.556,0.158,3.011-0.661,3.25"/>
<path class="st4" d="M24.1,37.255c0.819-0.239,1.85,0.829,2.304,2.385c0.454,1.556,0.158,3.011-0.661,3.25"/>
<path class="st4" d="M26.142,46.201c0.85-0.076,1.655,1.172,1.799,2.786c0.144,1.614-0.428,2.984-1.278,3.06"/>
<path class="st4" d="M27.455,54.986c0.567-0.165,1.282,0.575,1.596,1.653c0.314,1.078,0.109,2.086-0.458,2.252"/>
<path class="st4" d="M28.56,61.806c0.667-0.02,1.238,0.99,1.276,2.257c0.038,1.267-0.471,2.31-1.138,2.33"/>
<path class="st4" d="M28.238,70.252c0.591,0.053,0.988,1.007,0.887,2.129c-0.101,1.123-0.662,1.99-1.253,1.937"/>
<ellipse transform="matrix(0.261 -0.9653 0.9653 0.261 -70.1698 99.5211)" class="st2" cx="29.916" cy="95.591" rx="2.222" ry="1.33"/>
<ellipse transform="matrix(0.1597 -0.9872 0.9872 0.1597 -60.0042 105.1134)" class="st2" cx="31.74" cy="87.802" rx="2.222" ry="1.175"/>
<path class="st4" d="M27.728,78.911c0.84,0.149,1.292,1.563,1.009,3.159s-1.192,2.769-2.032,2.621"/>
<path class="st4" d="M26.109,88.661c0.582,0.104,0.893,1.084,0.696,2.19s-0.829,1.918-1.411,1.814"/>
<ellipse transform="matrix(0.073 -0.9973 0.9973 0.073 -0.2599 40.4225)" class="st2" cx="21.615" cy="20.351" rx="2.105" ry="2.831"/>
<path class="st4" d="M17.996,25.334c-0.001-0.518-1.315-0.937-2.936-0.935s-2.934,0.424-2.933,0.942"/>
<ellipse transform="matrix(0.2139 -0.9769 0.9769 0.2139 -83.7888 110.6676)" class="st1" cx="26.864" cy="107.392" rx="2.105" ry="0.965"/>
<path class="st5" d="M23.741,111.295c0.325,0.02,0.557,0.536,0.52,1.153c-0.038,0.617-0.331,1.101-0.656,1.081"/>
</svg>