<!-- Generator: Adobe Illustrator 22.1.0, SVG Export Plug-In  -->
<svg version="1.1"
	 xmlns="http://www.w3.org/2000/svg" xmlns:xlink="http://www.w3.org/1999/xlink" xmlns:a="http://ns.adobe.com/AdobeSVGViewerExtensions/3.0/"
	 x="0px" y="0px" width="171.945px" height="120.981px" viewBox="0 0 171.945 120.981"
	 style="enable-background:new 0 0 171.945 120.981;" xml:space="preserve">
<style type="text/css">
	.st0{fill:#A85983;stroke:#000000;stroke-width:3;stroke-miterlimit:10;}
	.st1{fill:#39B54A;stroke:#000000;stroke-width:3;stroke-miterlimit:10;}
	.st2{fill:none;stroke:#000000;stroke-width:3;stroke-linecap:round;stroke-miterlimit:10;}
</style>
<defs>
</defs>
<path class="st0" d="M69.66,61.714l-55.717-3.401C6.952,57.886,1.5,52.091,1.5,45.087v0c0-4.143,1.938-8.047,5.237-10.553
	l5.056-3.839c3.974-3.018,5.916-8.013,5.023-12.923l-0.118-0.65C15.22,8.987,21.468,1.5,29.735,1.5h14.32
	c3.811,0,7.437,1.641,9.952,4.503l28.574,32.508"/>
<path class="st0" d="M25.262,59.004l-12.601,9.268c-4.564,3.356-6.489,9.243-4.79,14.647l2.752,8.756
	c2.25,7.16,9.992,11.023,17.066,8.517l17.805-6.308l9.001-10.735l15.652-24.145H25.262z"/>
<path class="st0" d="M99.095,45.219l46.126-15.009c2.69-0.875,5.586-0.891,8.286-0.044l7.401,2.322
	c11.854,3.719,12.938,20.072,1.677,25.322l0,0c-5.055,2.357-8.16,7.559-7.836,13.126l0.456,7.84c0.212,3.646-1.05,7.224-3.502,9.93
	l-1.28,1.413c-4.443,4.902-11.767,5.9-17.359,2.364L90.031,65.276"/>
<path class="st0" d="M130.238,91.969l-4.803,13.223c-1.562,4.299-4.877,7.612-9.013,9.004l-13.157,4.43
	c-7.366,2.48-15.384-0.557-19.612-7.427L74.44,96.227l18.465-32.762L130.238,91.969z"/>
<path class="st1" d="M50.3,89.077L73.378,56.46c0.781-1.103,1.473-2.266,2.07-3.478l10.299-20.893
	c0.248-0.504,0.442-1.033,0.579-1.578l1.082-4.326c0.965-3.861,4.651-6.403,8.603-5.932l0,0c3.976,0.473,6.97,3.845,6.97,7.849
	v6.815c0,1.123-0.239,2.232-0.701,3.255L87.986,69.801c-0.361,0.8-0.767,1.578-1.216,2.332l-14.869,24.98
	c-0.651,1.094-1.515,2.046-2.539,2.802l-11.643,8.579c-3.36,2.476-7.939,2.481-11.305,0.013l0,0
	c-4.801-3.521-5.242-10.529-0.92-14.624l3.579-3.391C49.528,90.062,49.939,89.588,50.3,89.077z"/>
<line class="st2" x1="93.421" y1="20.379" x2="88.034" y2="4.26"/>
<line class="st2" x1="100.019" y1="21.197" x2="111.983" y2="10.37"/>
</svg>