<!-- Generator: Adobe Illustrator 22.1.0, SVG Export Plug-In  -->
<svg version="1.1"
	 xmlns="http://www.w3.org/2000/svg" xmlns:xlink="http://www.w3.org/1999/xlink" xmlns:a="http://ns.adobe.com/AdobeSVGViewerExtensions/3.0/"
	 x="0px" y="0px" width="38.397px" height="136.972px" viewBox="0 0 38.397 136.972"
	 style="enable-background:new 0 0 38.397 136.972;" xml:space="preserve">
<style type="text/css">
	.st0{fill:#262262;stroke:#262262;stroke-width:4;stroke-miterlimit:10;}
	.st1{fill:none;stroke:#FFFFFF;stroke-width:1.5;stroke-miterlimit:10;}
	.st2{fill:none;stroke:#FFFFFF;stroke-width:2;stroke-miterlimit:10;}
	.st3{fill:none;stroke:#FFFFFF;stroke-width:3;stroke-miterlimit:10;}
	.st4{fill:none;stroke:#FFFFFF;stroke-miterlimit:10;}
</style>
<defs>
</defs>
<path class="st0" d="M35.935,17.427l-1.144-5.084c-0.966-4.291-3.922-7.895-7.99-9.567l-0.11-0.045l-0.595-0.152
	c-2.387-0.609-4.88-0.762-7.307-0.34c-1.09,0.19-2.056,0.466-2.588,0.834c-2.597,1.794-4.531,4.393-5.504,7.396l-0.756,2.334
	c-1.212,3.741-1.536,7.714-0.947,11.602l2.669,17.61c3.39,23.688,8.027,47.465,8.298,71.458c0.03,2.678-0.533,5.359-1.791,7.724
	c-3.715,6.978-10.347,6.888-15.761,4.317c-0.245-0.116-0.504,0.141-0.375,0.379c2.341,4.301,6.306,7.603,11.345,8.031
	c3.655,0.311,7.417-0.955,10.14-3.412c3.791-3.42,5.318-8.663,6.18-13.695c3.268-19.08-1.454-37.367-2.803-56.296
	c-0.689-9.665-1.377-19.331-2.066-28.996c-0.188-2.638-0.368-5.346,0.404-7.875c1.205-3.944,4.696-5.796,8.617-6.073L35.935,17.427z
	"/>
<ellipse class="st1" cx="13.601" cy="135.101" rx="1.768" ry="1.122"/>
<ellipse transform="matrix(0.804 -0.5946 0.5946 0.804 -75.7172 38.4624)" class="st1" cx="20.492" cy="134.101" rx="1.754" ry="1.228"/>
<ellipse transform="matrix(0.5961 -0.8029 0.8029 0.5961 -94.1266 73.7288)" class="st1" cx="26.222" cy="130.425" rx="2.228" ry="0.713"/>
<ellipse transform="matrix(0.804 -0.5946 0.5946 0.804 -73.9855 35.8353)" class="st1" cx="17.372" cy="130.16" rx="1.754" ry="1.228"/>
<ellipse transform="matrix(0.6742 -0.7386 0.7386 0.6742 -85.2597 58.8892)" class="st2" cx="24.113" cy="126.075" rx="1.856" ry="1.299"/>
<ellipse transform="matrix(0.4595 -0.8882 0.8882 0.4595 -92.9479 92.6187)" class="st2" cx="29.624" cy="122.678" rx="2.188" ry="1.088"/>
<ellipse transform="matrix(0.1886 -0.9821 0.9821 0.1886 -94.9974 121.7415)" class="st2" cx="26.172" cy="118.357" rx="1.856" ry="1.299"/>
<ellipse transform="matrix(0.1227 -0.9924 0.9924 0.1227 -85.0168 130.554)" class="st2" cx="31.337" cy="113.365" rx="2.582" ry="1.555"/>
<ellipse class="st2" cx="27.464" cy="108.118" rx="1.555" ry="2.222"/>
<ellipse class="st2" cx="32.661" cy="104.675" rx="1.159" ry="2.222"/>
<ellipse class="st2" cx="27.86" cy="100.232" rx="1.159" ry="2.222"/>
<ellipse class="st2" cx="32.661" cy="96.498" rx="1.159" ry="2.222"/>
<ellipse transform="matrix(0.9878 -0.1558 0.1558 0.9878 -14.0329 5.4426)" class="st2" cx="27.713" cy="92.266" rx="1.305" ry="2.582"/>
<ellipse transform="matrix(0.9994 -0.0334 0.0334 0.9994 -2.8831 1.1032)" class="st2" cx="31.619" cy="86.95" rx="1.289" ry="2.222"/>
<ellipse transform="matrix(0.9994 -0.0334 0.0334 0.9994 -2.7766 0.9332)" class="st2" cx="26.576" cy="83.673" rx="1.159" ry="2.222"/>
<ellipse transform="matrix(0.9994 -0.0334 0.0334 0.9994 -2.6211 1.0524)" class="st2" cx="30.227" cy="79.073" rx="1.159" ry="2.222"/>
<ellipse class="st2" cx="25.312" cy="74.825" rx="1.159" ry="2.222"/>
<ellipse class="st2" cx="29.113" cy="71.091" rx="1.159" ry="2.222"/>
<ellipse transform="matrix(0.9878 -0.1558 0.1558 0.9878 -10.2336 4.4914)" class="st2" cx="23.543" cy="67.547" rx="1.305" ry="2.582"/>
<ellipse transform="matrix(0.9952 -0.0979 0.0979 0.9952 -6.0137 3.0543)" class="st2" cx="28.102" cy="62.779" rx="1.289" ry="2.222"/>
<ellipse class="st2" cx="22.903" cy="59.601" rx="1.292" ry="2.476"/>
<ellipse transform="matrix(0.9878 -0.1558 0.1558 0.9878 -8.2361 4.9705)" class="st2" cx="27.599" cy="55.04" rx="1.292" ry="2.476"/>
<ellipse transform="matrix(0.9774 -0.2115 0.2115 0.9774 -10.019 5.7136)" class="st2" cx="21.694" cy="49.682" rx="1.518" ry="2.497"/>
<ellipse transform="matrix(0.991 -0.1341 0.1341 0.991 -6.0671 4.0839)" class="st2" cx="27.289" cy="47.09" rx="1.523" ry="2.489"/>
<ellipse class="st1" cx="11.265" cy="130.16" rx="1.122" ry="0.931"/>
<ellipse transform="matrix(0.9774 -0.2115 0.2115 0.9774 -7.9143 5.2516)" class="st3" cx="20.587" cy="39.615" rx="2.232" ry="3.672"/>
<ellipse transform="matrix(0.9952 -0.0979 0.0979 0.9952 -2.8003 2.6265)" class="st3" cx="25.351" cy="29.835" rx="2.501" ry="3.672"/>
<ellipse transform="matrix(0.9952 -0.0979 0.0979 0.9952 -3.6947 2.8487)" class="st3" cx="27.168" cy="39.056" rx="0.956" ry="2.154"/>
<ellipse transform="matrix(0.9976 -0.0693 0.0693 0.9976 -9.2583 0.8696)" class="st1" cx="7.913" cy="133.969" rx="0.931" ry="1.122"/>
<ellipse transform="matrix(0.9976 -0.0693 0.0693 0.9976 -8.899 0.6576)" class="st4" cx="5.035" cy="128.68" rx="0.713" ry="0.859"/>
</svg>