<!-- Generator: Adobe Illustrator 22.1.0, SVG Export Plug-In  -->
<svg version="1.1"
	 xmlns="http://www.w3.org/2000/svg" xmlns:xlink="http://www.w3.org/1999/xlink" xmlns:a="http://ns.adobe.com/AdobeSVGViewerExtensions/3.0/"
	 x="0px" y="0px" width="24.229px" height="33.154px" viewBox="0 0 24.229 33.154"
	 style="enable-background:new 0 0 24.229 33.154;" xml:space="preserve">
<style type="text/css">
	.st0{fill:#262262;}
	.st1{fill:none;stroke:#FFFFFF;stroke-width:1.5;stroke-miterlimit:10;}
</style>
<defs>
</defs>
<path class="st0" d="M24.229,11.653C20.905,6.414,18.75,0.834,11.789,0.082c-2.386-0.258-4.938,0.06-6.887,1.462
	c-2.745,1.975-3.712,5.642-3.761,9.023c-0.052,3.632,0.481,7.206,0.27,10.847C1.183,25.355,0.568,29.251,0,33.154
	c3.038-1.631,7.289-3.061,9.1-6.188c2.029-3.504,0.533-7.859,3.118-11.182c2.053-2.639,5.501-3.53,8.683-3.866
	C21.246,11.881,24.086,11.427,24.229,11.653z"/>
<ellipse transform="matrix(0.2705 -0.9627 0.9627 0.2705 -14.8226 26.0682)" class="st1" cx="9.79" cy="22.815" rx="1.768" ry="1.122"/>
<ellipse transform="matrix(0.7995 -0.6007 0.6007 0.7995 -5.9991 10.0913)" class="st1" cx="12.114" cy="14.031" rx="1.754" ry="1.228"/>
<ellipse transform="matrix(0.5 -0.866 0.866 0.5 -11.3484 16.038)" class="st1" cx="8.215" cy="17.847" rx="1.754" ry="1.228"/>
<ellipse transform="matrix(0.2705 -0.9627 0.9627 0.2705 -18.8212 22.5895)" class="st1" cx="5.495" cy="23.714" rx="1.122" ry="0.931"/>
<ellipse transform="matrix(0.4458 -0.8951 0.8951 0.4458 -21.0509 21.9663)" class="st1" cx="7.215" cy="27.984" rx="1.122" ry="0.931"/>
<ellipse transform="matrix(0.2705 -0.9627 0.9627 0.2705 1.0068 24.1709)" class="st1" cx="16.453" cy="11.421" rx="1.122" ry="0.931"/>
</svg>