<!-- Generator: Adobe Illustrator 22.1.0, SVG Export Plug-In  -->
<svg version="1.1"
	 xmlns="http://www.w3.org/2000/svg" xmlns:xlink="http://www.w3.org/1999/xlink" xmlns:a="http://ns.adobe.com/AdobeSVGViewerExtensions/3.0/"
	 x="0px" y="0px" width="80.426px" height="36.481px" viewBox="0 0 80.426 36.481"
	 style="enable-background:new 0 0 80.426 36.481;" xml:space="preserve">
<style type="text/css">
	.st0{fill:#262262;}
	.st1{fill:none;stroke:#FFFFFF;stroke-width:1.5;stroke-miterlimit:10;}
	.st2{fill:none;stroke:#FFFFFF;stroke-width:2;stroke-miterlimit:10;}
	.st3{fill:none;stroke:#FFFFFF;stroke-width:3;stroke-linecap:round;stroke-miterlimit:10;}
	.st4{fill:none;stroke:#FFFFFF;stroke-width:2;stroke-linecap:round;stroke-miterlimit:10;}
</style>
<defs>
</defs>
<path class="st0" d="M0,3.774c0,0,0.963,24.55,0.963,24.554c-0.087-0.875,10.259-4.436,11.206-4.749
	c4.374-1.445,9.041-2.292,13.62-1.368c5.543,1.119,10.238,4.637,14.985,7.71c10.604,6.863,23.766,7.306,35.076,1.507l4.577-2.347
	c0,0-4.073-0.236-4.074-0.236c-9.926-0.577-18.715-5.623-26.333-11.712C43.996,12.321,38.285,6.99,31.463,3.399
	C20.597-2.323,11.001,0.14,0,3.774z"/>
<ellipse transform="matrix(0.1074 -0.9942 0.9942 0.1074 20.2198 83.0529)" class="st1" cx="56.363" cy="30.266" rx="1.173" ry="1.736"/>
<ellipse transform="matrix(0.4691 -0.8831 0.8831 0.4691 1.9115 57.5238)" class="st2" cx="48.803" cy="27.172" rx="1.43" ry="2.196"/>
<ellipse transform="matrix(0.522 -0.8529 0.8529 0.522 0.4633 46.4802)" class="st2" cx="41.704" cy="22.827" rx="1.23" ry="2.19"/>
<ellipse transform="matrix(0.439 -0.8985 0.8985 0.439 2.621 41.6971)" class="st2" cx="34.701" cy="18.75" rx="1.875" ry="2.45"/>
<ellipse transform="matrix(0.3657 -0.9307 0.9307 0.3657 2.56 34.2049)" class="st2" cx="26.376" cy="15.224" rx="1.994" ry="2.813"/>
<path class="st3" d="M24.466,21.446c0.304-0.748,1.778-0.903,3.292-0.346c1.514,0.557,2.494,1.614,2.189,2.362"/>
<path class="st4" d="M33.049,25.268c0.365-0.72,1.847-0.752,3.309-0.071c1.462,0.681,2.351,1.816,1.985,2.536"/>
<path class="st4" d="M41.369,30.139c0.453-0.677,1.933-0.56,3.306,0.261c1.373,0.821,2.119,2.036,1.666,2.713"/>
<path class="st4" d="M49.16,33.213c0.211-0.518,1.232-0.625,2.281-0.24c1.049,0.386,1.728,1.119,1.517,1.637"/>
<ellipse transform="matrix(0.7387 -0.674 0.674 0.7387 -6.7659 15.8355)" class="st2" cx="17.042" cy="16.644" rx="2.734" ry="2.052"/>
<ellipse class="st1" cx="59.949" cy="34.61" rx="1.768" ry="1.122"/>
<ellipse class="st1" cx="63.548" cy="31.406" rx="1.122" ry="0.931"/>
<path class="st3" d="M14.244,24.327c-0.194-0.784,0.906-1.776,2.457-2.217c1.551-0.441,2.966-0.163,3.16,0.621"/>
<ellipse transform="matrix(0.9568 -0.2907 0.2907 0.9568 -4.9857 2.9483)" class="st2" cx="7.429" cy="18.253" rx="2.734" ry="2.052"/>
<path class="st3" d="M4.631,25.935c-0.194-0.784,0.906-1.776,2.457-2.217s2.966-0.163,3.16,0.621"/>
</svg>