<!-- Generator: Adobe Illustrator 22.1.0, SVG Export Plug-In  -->
<svg version="1.1"
	 xmlns="http://www.w3.org/2000/svg" xmlns:xlink="http://www.w3.org/1999/xlink" xmlns:a="http://ns.adobe.com/AdobeSVGViewerExtensions/3.0/"
	 x="0px" y="0px" width="82.106px" height="31.217px" viewBox="0 0 82.106 31.217"
	 style="enable-background:new 0 0 82.106 31.217;" xml:space="preserve">
<style type="text/css">
	.st0{fill:#FEBC11;}
	.st1{fill:#939598;}
	.st2{fill:#FEBC11;stroke:#A7A9AC;stroke-width:0.25;stroke-linecap:round;stroke-miterlimit:10;}
	.st3{fill:none;stroke:#A7A9AC;stroke-width:0.25;stroke-miterlimit:10;}
</style>
<defs>
</defs>
<ellipse transform="matrix(0.0655 -0.9979 0.9979 0.0655 12.8545 64.8543)" class="st0" cx="41.053" cy="25.564" rx="4.979" ry="41.14"/>
<path class="st0" d="M28.237,25.185l20.559,2.42c0.189,0.022,0.381,0.013,0.567-0.028l5.832-1.273
	c0.8-0.175,1.365-0.889,1.351-1.707l-0.129-7.417c-0.015-0.86-0.664-1.576-1.518-1.676l-20.232-2.362
	c-0.139-0.016-0.28-0.015-0.419,0.003l-6.508,0.841c-0.896,0.116-1.549,0.906-1.494,1.808l0.478,7.79
	C26.775,24.414,27.412,25.087,28.237,25.185z"/>
<path class="st0" d="M41.049,16.413h0.97h0.942c0.601,0,1.087-0.487,1.087-1.087v-9.89c0-0.601,0.487-1.087,1.087-1.087h2.606V0
	h-5.632c-1.186,0-2.147,0.961-2.147,2.147v13.178C39.962,15.926,40.449,16.413,41.049,16.413z"/>
<ellipse class="st1" cx="47.742" cy="2.174" rx="0.449" ry="2.174"/>
<path class="st2" d="M44.022,15.458c0,0.706-0.909,1.278-2.03,1.278s-2.03-0.572-2.03-1.278"/>
<path class="st3" d="M8.524,26.503c0-3.638,4.968-6.581,11.108-6.581"/>
<path class="st3" d="M61.759,31.169c0-3.743,4.968-6.771,11.108-6.771"/>
<circle class="st3" cx="9.347" cy="25.644" r="0.08"/>
<circle class="st3" cx="11.923" cy="22.66" r="0.08"/>
<circle class="st3" cx="16.23" cy="21.033" r="0.08"/>
<ellipse transform="matrix(0.9986 -0.0523 0.0523 0.9986 -1.0312 1.6145)" class="st1" cx="30.356" cy="20.525" rx="1.241" ry="2.055"/>
<ellipse transform="matrix(0.9986 -0.0523 0.0523 0.9986 -1.067 1.9728)" class="st1" cx="37.189" cy="21.39" rx="1.241" ry="2.055"/>
<ellipse transform="matrix(0.9986 -0.0523 0.0523 0.9986 -1.1076 2.3312)" class="st1" cx="44.022" cy="22.344" rx="1.241" ry="2.055"/>
<circle class="st3" cx="63.366" cy="29.676" r="0.08"/>
<circle class="st3" cx="66.144" cy="26.879" r="0.08"/>
<circle class="st3" cx="70.554" cy="25.557" r="0.08"/>
</svg>