<!-- Generator: Adobe Illustrator 22.1.0, SVG Export Plug-In  -->
<svg version="1.1"
	 xmlns="http://www.w3.org/2000/svg" xmlns:xlink="http://www.w3.org/1999/xlink" xmlns:a="http://ns.adobe.com/AdobeSVGViewerExtensions/3.0/"
	 x="0px" y="0px" width="197.437px" height="95.092px" viewBox="0 0 197.437 95.092"
	 style="enable-background:new 0 0 197.437 95.092;" xml:space="preserve">
<style type="text/css">
	.st0{fill:#9E1F63;stroke:#000000;stroke-miterlimit:10;}
	.st1{fill:#BE1E2D;stroke:#000000;stroke-miterlimit:10;}
	.st2{fill:#FFFFFF;stroke:#000000;stroke-miterlimit:10;}
	.st3{stroke:#000000;stroke-miterlimit:10;}
</style>
<defs>
</defs>
<path class="st0" d="M160.437,18.043l-0.075-5.96c-0.036-2.847-1.83-5.262-4.337-5.84l-24.347-5.614
	c-0.551-0.127-1.118-0.16-1.681-0.098l-25.573,2.836c-0.578,0.064-1.145,0.228-1.68,0.485L80.851,14.385
	c-0.486,0.234-0.941,0.542-1.35,0.916L62.213,31.086c-1.111,1.015-1.835,2.458-2.02,4.031v0c-0.482,4.095,2.723,7.482,6.395,6.759
	l89.175-17.579C158.485,23.76,160.475,21.098,160.437,18.043z"/>
<path class="st1" d="M191.819,51.12c0,0,4.443,3.249-1.806,8.269c-13.857,11.132-38.369,33.53-67.884,33.53
	c-42.25,0-76.5-42.865-76.5-42.865s34.25-42.865,76.5-42.865c29.965,0,55.907,21.562,68.459,34.101
	c2.573,2.57,4.051,5.751,5.95,6.31C198.629,48.214,191.819,51.12,191.819,51.12z"/>
<path class="st0" d="M7.372,93.766l37.289-36.017c4.253-4.108,3.998-10.999-0.546-14.782L6.179,11.392
	c-1.607-1.338-3.99,0.149-3.495,2.181l6.025,24.727c0.223,0.914-0.169,1.868-0.971,2.361l-4.231,2.604
	c-1.206,0.742-1.389,2.422-0.371,3.406l2.394,2.315c0.662,0.64,0.847,1.628,0.463,2.465l-5.29,11.514
	c-0.782,1.703,0.818,3.53,2.609,2.979h0c1.533-0.472,3.031,0.827,2.78,2.411L2.482,91.222C2.047,93.977,5.366,95.704,7.372,93.766z"
	/>
<polygon class="st0" points="131.519,50.053 108.082,38.863 108.082,50.053 95.654,64.785 129.388,54.487 "/>
<circle class="st2" cx="170.137" cy="38.109" r="4.312"/>
<ellipse class="st3" cx="172.254" cy="38.307" rx="1.789" ry="3.198"/>
</svg>